<svg xmlns="http://www.w3.org/2000/svg" version="1.1" id="Capa_1" x="0px"
     y="0px" width="512px" height="512px" viewBox="0 0 512 512" style="enable-background:new 0 0 512 512;"
     xml:space="preserve">
<style type="text/css">
	.st0{fill:#FFFFFF;}
</style>
    <g>
	<g>
		<path class="st0"
              d="M435.1,382.2l-26.4-43.1c-2.2-3.5-6.8-4.6-10.3-2.5c-3.5,2.2-4.6,6.8-2.5,10.3l26.4,43.1    c13.5,22,14,48.5,1.4,71c-12.6,22.5-35.5,35.9-61.3,35.9H149.6c-25.8,0-48.7-13.4-61.3-35.9s-12.1-49,1.4-71l61.6-100.6h209.5    l17.6,28.7c1.4,2.3,3.9,3.6,6.4,3.6c1.3,0,2.7-0.4,3.9-1.1c3.5-2.2,4.6-6.8,2.5-10.3L324.8,202V47.2c12.5-0.6,22.4-11,22.4-23.6    c0-13-10.6-23.6-23.6-23.6H188.4c-13,0-23.6,10.6-23.6,23.6c0,12.6,9.9,23,22.4,23.6v63.9c0,4.1,3.4,7.5,7.5,7.5s7.5-3.4,7.5-7.5    V47.3h16.2c4.1,0,7.5-3.4,7.5-7.5s-3.4-7.5-7.5-7.5h-30c-4.8,0-8.6-3.9-8.6-8.6s3.9-8.6,8.6-8.6h135.2c4.8,0,8.6,3.9,8.6,8.6    s-3.9,8.6-8.6,8.6h-71.4c-4.1,0-7.5,3.4-7.5,7.5s3.4,7.5,7.5,7.5h57.6v156.8c0,1.4,0.4,2.7,1.1,3.9l40.6,66.4H160.4l40.6-66.4    c0.7-1.2,1.1-2.5,1.1-3.9v-59.2c0-4.1-3.4-7.5-7.5-7.5s-7.5,3.4-7.5,7.5V202L76.9,382.2c-16.3,26.7-16.9,58.9-1.6,86.2    s43.1,43.6,74.4,43.6h212.7c31.3,0,59.1-16.3,74.4-43.6S451.4,408.9,435.1,382.2L435.1,382.2z"/>
        <path class="st0"
              d="M231,189.1h43.6c4.1,0,7.5-3.4,7.5-7.5s-3.4-7.5-7.5-7.5H231c-4.1,0-7.5,3.4-7.5,7.5S226.8,189.1,231,189.1z"/>
        <path class="st0"
              d="M231,222.6h27c4.1,0,7.5-3.4,7.5-7.5s-3.4-7.5-7.5-7.5h-27c-4.1,0-7.5,3.4-7.5,7.5S226.8,222.6,231,222.6z"/>
        <path class="st0"
              d="M231,256h27c4.1,0,7.5-3.4,7.5-7.5s-3.4-7.5-7.5-7.5h-27c-4.1,0-7.5,3.4-7.5,7.5S226.8,256,231,256z"/>
        <path class="st0"
              d="M274.6,307.8H231c-4.1,0-7.5,3.4-7.5,7.5s3.4,7.5,7.5,7.5h43.6c4.1,0,7.5-3.4,7.5-7.5    S278.8,307.8,274.6,307.8z"/>
        <path class="st0"
              d="M231,456.5h43.6c4.1,0,7.5-3.4,7.5-7.5s-3.4-7.5-7.5-7.5H231c-4.1,0-7.5,3.4-7.5,7.5S226.8,456.5,231,456.5z"/>
        <path class="st0"
              d="M231,356.3h27c4.1,0,7.5-3.4,7.5-7.5s-3.4-7.5-7.5-7.5h-27c-4.1,0-7.5,3.4-7.5,7.5S226.8,356.3,231,356.3z"/>
        <path class="st0"
              d="M231,389.7h27c4.1,0,7.5-3.4,7.5-7.5s-3.4-7.5-7.5-7.5h-27c-4.1,0-7.5,3.4-7.5,7.5S226.8,389.7,231,389.7z"/>
        <path class="st0"
              d="M231,423.1h27c4.1,0,7.5-3.4,7.5-7.5s-3.4-7.5-7.5-7.5h-27c-4.1,0-7.5,3.4-7.5,7.5S226.8,423.1,231,423.1z"/>
	</g>
</g>
</svg>
