<svg xmlns="http://www.w3.org/2000/svg" version="1.1" id="Layer_2" x="0px"
     y="0px" width="512px" height="512px" viewBox="0 0 512 512" style="enable-background:new 0 0 512 512;"
     xml:space="preserve">
<style type="text/css">
	.st0{fill:#FFFFFF;}
</style>
    <path class="st0"
          d="M236.8,402.4H91.5c-3.9-15.7-19.8-25.3-35.5-21.5s-25.3,19.8-21.5,35.5s19.8,25.3,35.5,21.5  c10.6-2.6,18.9-10.9,21.5-21.5h145.3c3.9,15.7,19.8,25.3,35.5,21.5s25.3-19.8,21.5-35.5s-19.8-25.3-35.5-21.5  C247.7,383.5,239.4,391.8,236.8,402.4z M63.1,424.7c-8.5,0-15.3-6.9-15.3-15.3c0-8.5,6.9-15.3,15.3-15.3c8.5,0,15.3,6.9,15.3,15.3  c0,0,0,0,0,0C78.4,417.9,71.6,424.7,63.1,424.7L63.1,424.7z M265.2,394.1c8.5,0,15.3,6.9,15.3,15.3s-6.9,15.3-15.3,15.3  s-15.3-6.9-15.3-15.3C249.9,400.9,256.8,394.1,265.2,394.1L265.2,394.1z"/>
    <path class="st0"
          d="M505,39.5H270.8c-1.9,0-3.7,0.8-5,2.1l-57.6,57.6c-1.3,1.3-2.1,3.2-2.1,5v46.2h-41.8c-2.2,0-4.3,1-5.6,2.8  l-40.1,53.1H32.3c-3.9,0-7,3.1-7,7c0,0,0,0,0,0v89.7c0,3.9,3.1,7,7,7h62.8v36.2h-32C28.2,346.3,0,374.6,0,409.4s28.2,63.1,63.1,63.1  c0,0,0,0,0,0h202.2c34.8,0,63.1-28.2,63.1-63.1s-28.2-63.1-63.1-63.1c0,0,0,0,0,0h-32v-36.2H296c3.9,0,7-3.1,7-7V157.5  c0-3.9-3.1-7-7-7c0,0,0,0,0,0h-36v-26.8l30.2-30.2H458v230.6h-63.7V321c0-17.1-13.9-31-31-31H362c-3.9,0-7,3.1-7,7c0,0,0,0,0,0v34.2  c0,1.2,0.3,2.5,1,3.6l40,68c1.3,2.1,3.6,3.4,6,3.4h103c3.9,0,7-3.1,7-7c0,0,0,0,0,0V46.5C512,42.6,508.9,39.5,505,39.5  C505,39.5,505,39.5,505,39.5L505,39.5z M220,114.7l26,10.8v25h-26V114.7z M265.2,360.3c27.1,0,49.1,22,49.1,49.1s-22,49.1-49.1,49.1  c0,0,0,0,0,0H238v-17.8c0-3.9-3.1-7-7-7c-3.9,0-7,3.1-7,7v17.8h-19.4v-17.8c0-3.9-3.1-7-7-7c-3.9,0-7,3.1-7,7v17.8h-19.4v-17.8  c0-3.9-3.1-7-7-7c-3.9,0-7,3.1-7,7v17.8h-19.4v-17.8c0-3.9-3.1-7-7-7c-3.9,0-7,3.1-7,7v17.8h-19.4v-17.8c0-3.9-3.1-7-7-7  c-3.9,0-7,3.1-7,7l0,0v17.8H63.1c-27.1,0-49.1-22-49.1-49.1s22-49.1,49.1-49.1c0,0,0,0,0,0h32v16c0,3.9,3.1,7,7,7s7-3.1,7-7v-16h17  v16c0,3.9,3.1,7,7,7s7-3.1,7-7v-16h17v16c0,3.9,3.1,7,7,7s7-3.1,7-7v-16h17v16c0,3.9,3.1,7,7,7s7-3.1,7-7v-16h17.1v16  c0,3.9,3.1,7,7,7s7-3.1,7-7v-16H265.2z M109.1,346.3v-36.2h110.2v36.2H109.1z M289,254.6h-99.6V206H289V254.6z M289,164.5V192H182.4  c-3.9,0-7,3.1-7,7v62.6c0,3.9,3.1,7,7,7H289v27.5H39.3v-29.3h90.4c3.9,0,7-3.1,7-7s-3.1-7-7-7H39.3v-32.4H122c2.2,0,4.3-1,5.6-2.8  l40.1-53.2H289z M251.4,112.5l-26-10.8l42.9-42.9l10.8,26L251.4,112.5z M292,79.5l-10.8-26H458v26H292z M369,305  c6.8,2.4,11.3,8.8,11.3,16v3.2H369V305z M498,392.2h-92l-11.8-20h45.1c3.9,0,7-3.1,7-7s-3.1-7-7-7l0,0H386l-11.8-20H498V392.2z   M498,324.2h-26V93.5h26V324.2z M498,79.5h-26v-26h26V79.5z"/>
</svg>
