<svg xmlns="http://www.w3.org/2000/svg" version="1.1" id="Layer_1" x="0px"
     y="0px" width="512px" height="512px" viewBox="0 0 512 512" style="enable-background:new 0 0 512 512;"
     xml:space="preserve">
<style type="text/css">
	.st0{fill:#FFFFFF;}
</style>
    <path class="st0" d="M273.3,372.8h-42.7c-3.3,0-6,2.7-6,6s2.7,6,6,6h42.7c3.3,0,6-2.7,6-6S276.6,372.8,273.3,372.8z"/>
    <path class="st0" d="M87.7,384.8h42.7c3.3,0,6-2.7,6-6s-2.7-6-6-6H87.6c-3.3,0-6,2.7-6,6S84.3,384.8,87.7,384.8z"/>
    <path class="st0" d="M372.5,384.8h42.7c3.3,0,6-2.7,6-6s-2.7-6-6-6h-42.7c-3.3,0-6,2.7-6,6S369.2,384.8,372.5,384.8z"/>
    <path class="st0" d="M273.3,352.4h-42.7c-3.3,0-6,2.7-6,6s2.7,6,6,6h42.7c3.3,0,6-2.7,6-6S276.6,352.4,273.3,352.4z"/>
    <path class="st0" d="M87.7,364.4h42.7c3.3,0,6-2.7,6-6s-2.7-6-6-6H87.6c-3.3,0-6,2.7-6,6S84.3,364.4,87.7,364.4z"/>
    <path class="st0" d="M372.5,364.4h42.7c3.3,0,6-2.7,6-6s-2.7-6-6-6h-42.7c-3.3,0-6,2.7-6,6S369.2,364.4,372.5,364.4z"/>
    <path class="st0" d="M273.3,332.1h-42.7c-3.3,0-6,2.7-6,6s2.7,6,6,6h42.7c3.3,0,6-2.7,6-6S276.6,332.1,273.3,332.1z"/>
    <path class="st0" d="M87.7,344.1h42.7c3.3,0,6-2.7,6-6s-2.7-6-6-6H87.6c-3.3,0-6,2.7-6,6S84.3,344.1,87.7,344.1z"/>
    <path class="st0" d="M372.5,344.1h42.7c3.3,0,6-2.7,6-6s-2.7-6-6-6h-42.7c-3.3,0-6,2.7-6,6S369.2,344.1,372.5,344.1z"/>
    <path class="st0"
          d="M61.2,302.5c3.3,0,6-2.7,6-6v-4.9c0-3.3-2.7-6-6-6c-3.3,0-6,2.7-6,6v4.9C55.2,299.8,57.8,302.5,61.2,302.5z"/>
    <path class="st0"
          d="M61.2,429.1c3.3,0,6-2.7,6-6V314.7c0-3.3-2.7-6-6-6c-3.3,0-6,2.7-6,6v108.4C55.2,426.4,57.8,429.1,61.2,429.1z"/>
    <path class="st0" d="M118.3,233.6h-22c-3.3,0-6,2.7-6,6s2.7,6,6,6h22c3.3,0,6-2.7,6-6S121.6,233.6,118.3,233.6z"/>
    <path class="st0"
          d="M110.4,189.6c0-3.3-2.7-6-6-6H88.2c-3.3,0-6,2.7-6,6s2.7,6,6,6h16.2C107.7,195.6,110.4,192.9,110.4,189.6z"/>
    <path class="st0" d="M103.7,145.6h21c3.3,0,6-2.7,6-6s-2.7-6-6-6h-21c-3.3,0-6,2.7-6,6S100.3,145.6,103.7,145.6z"/>
    <path class="st0" d="M272.9,233.6h-22c-3.3,0-6,2.7-6,6s2.7,6,6,6h22c3.3,0,6-2.7,6-6S276.2,233.6,272.9,233.6z"/>
    <path class="st0"
          d="M265,189.6c0-3.3-2.7-6-6-6h-16.2c-3.3,0-6,2.7-6,6s2.7,6,6,6H259C262.3,195.6,265,192.9,265,189.6z"/>
    <path class="st0" d="M258.3,145.6h21c3.3,0,6-2.7,6-6s-2.7-6-6-6h-21c-3.3,0-6,2.7-6,6S255,145.6,258.3,145.6z"/>
    <path class="st0"
          d="M473.7,296.6l-146.4-54c-3.1-1.1-6.6,0.4-7.7,3.6c-0.2,0.7-0.4,1.4-0.4,2.1v45.2l-4.3-1.6L301.8,26.3  c-0.2-3.2-2.8-5.7-6-5.7h-73.6c-3.2,0-5.9,2.5-6,5.7l-4.9,111.9c-0.2,0.7-0.2,1.5-0.1,2.2l-4.8,110.1l-21-8  c-3.1-1.2-6.6,0.4-7.7,3.5c-0.3,0.7-0.4,1.4-0.4,2.1v45.6l-17.2-6.5l-13-260.9c-0.2-3.2-2.8-5.7-6-5.7H67.5c-3.2,0-5.9,2.5-6,5.7  l-9.5,219.8l-9.4-3.6c-3.1-1.2-6.6,0.4-7.7,3.5c-0.3,0.7-0.4,1.4-0.4,2.1v237.2c0,3.3,2.7,6,6,6h431.2c3.3,0,6-2.7,6-6V302.2  C477.6,299.7,476.1,297.4,473.7,296.6L473.7,296.6z M73.2,32.6h62.2l2.1,41.9H71.4L73.2,32.6z M64,245.6h10.4c3.3,0,6-2.7,6-6  s-2.7-6-6-6h-9.9l3.8-88h10.3c3.3,0,6-2.7,6-6s-2.7-6-6-6h-9.8l2-47.1h67.2l4.8,97.1h-19.6c-3.3,0-6,2.7-6,6s2.7,6,6,6h20.2  l4.3,86.9l-84.1-31.9L64,245.6z M128.4,479.4H89.6v-60h38.9V479.4z M177.3,479.4h-36.9v-66c0-3.3-2.7-6-6-6H83.6c-3.3,0-6,2.7-6,6  v66H46.4V256.9l130.9,49.7V479.4z M227.9,32.6h62.2l2.1,41.9H226L227.9,32.6z M218.6,245.6H229c3.3,0,6-2.7,6-6s-2.7-6-6-6h-9.8  l3.8-88h10.3c3.3,0,6-2.7,6-6s-2.7-6-6-6h-9.8l2-47.1h67.2l4.8,97.1h-19.6c-3.3,0-6,2.7-6,6s2.7,6,6,6h20.2l4.6,91.5L218.2,255  L218.6,245.6z M271.4,479.4h-38.9v-60h38.9V479.4z M413.3,479.4h-38.9v-60h38.9V479.4z M465.6,479.4h-40.3v-66c0-3.3-2.7-6-6-6  h-50.9c-3.3,0-6,2.7-6,6v66h-31.2v-58.7c0-3.3-2.7-6-6-6s-6,2.7-6,6v58.7h-35.9v-66c0-3.3-2.7-6-6-6h-50.9c-3.3,0-6,2.7-6,6v66  h-31.2V256.9l130,49.4V400c0,3.3,2.7,6,6,6s6-2.7,6-6V256.8l134.4,49.6L465.6,479.4z"/>
</svg>
