<svg xmlns="http://www.w3.org/2000/svg" version="1.1" id="Layer_1" x="0px"
     y="0px" width="512px" height="512px" viewBox="0 0 512 512" style="enable-background:new 0 0 512 512;"
     xml:space="preserve">
<style type="text/css">
	.st0{fill:#FFFFFF;}
</style>
    <path class="st0" d="M71,147.1c-3.3,0-6,2.7-6,6v5.8c0,3.3,2.7,6,6,6s6-2.7,6-6v-5.8C77,149.7,74.3,147.1,71,147.1z"/>
    <path class="st0"
          d="M71,170.8c-3.3,0-6,2.7-6,6v59.5c0,3.3,2.7,6,6,6s6-2.7,6-6v-59.5C77,173.5,74.3,170.8,71,170.8z"/>
    <path class="st0"
          d="M497,326h-54.8v-21.3c31.6-9.2,53.4-38.2,53.5-71.1v-49.6c0-40.8-33.1-73.9-73.9-74  c-1.9-9.5-10.2-16.4-19.9-16.4c-9.7,0-18,6.9-19.9,16.4h-14.7V84.3c0-3.3-2.7-6-6-6h-98.5c-3.3,0-6,2.7-6,6v25.6H130.1  c-1.9-9.5-10.2-16.4-19.9-16.4c-9.7,0-18,6.9-19.9,16.4c-40.8,0.1-73.9,33.2-73.9,74v49.6c0.1,32.9,21.9,61.9,53.5,71.1V326H15  c-3.3,0-6,2.7-6,6v50.7c0,3.3,2.7,6,6,6h15.2c0,0.4,0,0.9,0,1.3c0,24.1,19.5,43.7,43.7,43.7s43.7-19.5,43.7-43.7c0,0,0,0,0,0  c0-0.4,0-0.9,0-1.3h12.7c0,0.4,0,0.9,0,1.3c0,24.1,19.6,43.7,43.7,43.7s43.7-19.6,43.7-43.7c0-0.4,0-0.9,0-1.3H250v21  c0,3.3,2.7,6,6,6h100c3.3,0,6-2.7,6-6v-21h32.5c0,0.4,0,0.9,0,1.3c0,24.1,19.6,43.7,43.7,43.7c24.1,0,43.7-19.6,43.7-43.7  c0-0.4,0-0.9,0-1.3H497c3.3,0,6-2.7,6-6V332C503,328.7,500.3,326,497,326z M422.2,121.9c34,0.3,61.5,27.9,61.5,62v49.6  c0,34.1-27.5,61.8-61.5,62V121.9z M421.5,307.5h0.2c2.8,0,5.7-0.2,8.5-0.5V326h-56.6v-18.4h8.6c2.3,9,10.4,15.4,19.7,15.4  C411.2,322.9,419.3,316.6,421.5,307.5L421.5,307.5z M268.8,90.3h86.5v19.6h-86.5V90.3z M235.4,121.9h146.2V150c0,3.3,2.7,6,6,6  s6-2.7,6-6v-36.2c0-4.6,3.7-8.3,8.3-8.3c2.2,0,4.3,0.9,5.9,2.4c1.6,1.5,2.4,3.7,2.4,5.8v188.8c0,4.6-3.7,8.3-8.3,8.3  c-2.2,0-4.3-0.9-5.9-2.4c-1.6-1.5-2.4-3.7-2.4-5.9V171c0-3.3-2.7-6-6-6s-6,2.7-6,6v124.5H235.4V121.9z M361.6,307.5V326H150.4v-18.4  H361.6z M189.7,121.9h33.7v29.8h-33.7V121.9z M189.7,163.8h33.7v21.9h-33.7V163.8z M189.7,197.7h33.7v21.9h-33.7V197.7z   M189.7,231.6h33.7v21.9h-33.7V231.6z M189.7,265.5h33.7v30h-33.7V265.5z M130.4,121.9h47.3v173.6h-47.3V121.9z M129.8,307.5h8.6  V326H81.8V307c2.8,0.3,5.6,0.5,8.5,0.5h0.2c2.3,9,10.4,15.4,19.7,15.4C119.4,322.9,127.5,316.6,129.8,307.5L129.8,307.5z   M28.3,233.5v-49.6c0-34,27.5-61.7,61.5-62v125.6c0,3.3,2.7,6,6,6s6-2.7,6-6V113.8c0-4.6,3.7-8.3,8.3-8.3c2.2,0,4.3,0.9,5.9,2.4  c1.6,1.5,2.4,3.7,2.4,5.8v188.8c0,4.6-3.7,8.3-8.3,8.3c-2.2,0-4.3-0.9-5.9-2.4c-1.6-1.5-2.4-3.7-2.4-5.8v-32.9c0-3.3-2.7-6-6-6  s-6,2.7-6,6v25.8C55.8,295.3,28.3,267.6,28.3,233.5L28.3,233.5z M73.8,421.7c-17.5,0-31.7-14.2-31.7-31.7s14.2-31.7,31.7-31.7  c15.1,0,28.1,10.7,31.1,25.5v0c3.4,17.2-7.8,33.8-25,37.2C77.9,421.5,75.9,421.7,73.8,421.7L73.8,421.7z M173.8,421.7  c-17.5,0-31.7-14.2-31.7-31.7c0-17.5,14.2-31.7,31.7-31.7c15.1,0,28.1,10.7,31.1,25.5v0c3.4,17.2-7.8,33.8-25,37.2  C177.9,421.5,175.9,421.7,173.8,421.7L173.8,421.7z M350,403.7h-88v-15h88L350,403.7z M438.2,421.7c-17.5,0-31.7-14.2-31.7-31.7  s14.2-31.7,31.7-31.7c15.1,0,28.1,10.7,31.1,25.5v0c3.4,17.2-7.8,33.8-25,37.2C442.2,421.5,440.2,421.7,438.2,421.7L438.2,421.7z   M491,376.7h-11.2c-7.3-23-31.9-35.6-54.9-28.3c-13.5,4.3-24,14.8-28.3,28.3H215.4c-7.3-23-31.9-35.6-54.9-28.3  c-13.5,4.3-24,14.8-28.3,28.3h-16.8c-7.3-23-31.9-35.6-54.9-28.3c-13.5,4.3-24,14.8-28.3,28.3H21V338h470V376.7z"/>
    <path class="st0"
          d="M73.8,369.9c-11.1,0-20.1,9-20.1,20.1s9,20.1,20.1,20.1s20.1-9,20.1-20.1C93.9,378.9,84.9,369.9,73.8,369.9z   M73.8,398.1c-4.5,0-8.1-3.6-8.1-8.1s3.6-8.1,8.1-8.1s8.1,3.6,8.1,8.1l0,0C81.9,394.5,78.3,398.1,73.8,398.1z"/>
    <path class="st0"
          d="M173.8,369.9c-11.1,0-20.1,9-20.1,20.1s9,20.1,20.1,20.1s20.1-9,20.1-20.1l0,0  C193.9,378.9,184.9,369.9,173.8,369.9z M173.8,398.1c-4.5,0-8.1-3.6-8.1-8.1c0-4.5,3.6-8.1,8.1-8.1c4.5,0,8.1,3.6,8.1,8.1l0,0  C181.9,394.5,178.3,398.1,173.8,398.1z"/>
    <path class="st0"
          d="M438.2,369.9c-11.1,0-20.1,9-20.1,20.1s9,20.1,20.1,20.1s20.1-9,20.1-20.1l0,0  C458.2,378.9,449.3,369.9,438.2,369.9z M438.2,398.1c-4.5,0-8.1-3.6-8.1-8.1s3.6-8.1,8.1-8.1s8.1,3.6,8.1,8.1l0,0  C446.2,394.5,442.6,398.1,438.2,398.1z"/>
</svg>
